<?xml version="1.0" encoding="utf-8"?>
<!-- Generator: Adobe Illustrator 17.1.0, SVG Export Plug-In . SVG Version: 6.00 Build 0)  -->
<!DOCTYPE svg PUBLIC "-//W3C//DTD SVG 1.1//EN" "http://www.w3.org/Graphics/SVG/1.1/DTD/svg11.dtd">
<svg version="1.1" id="Layer_1" xmlns="http://www.w3.org/2000/svg" xmlns:xlink="http://www.w3.org/1999/xlink" x="0px" y="0px"
	 width="135.1px" height="45px" viewBox="0 0 135.1 45" enable-background="new 0 0 135.1 45" xml:space="preserve">
<g>
	<g id="XMLID_2_">
		<path fill="#0067AC" d="M134,20.5c0.8,0.8-0.4,2.2-1.3,1.3c0,0-0.1-0.1-0.1-0.1c-0.6-0.5-1.6-0.6-2.4-0.6c-2,0-2.9,0.8-2.9,1.8
			c0,1.1,1.2,1.5,2.2,1.9c2.4,0.7,5.7,1.1,5.7,4.5c0,3-2.6,4.3-5.2,4.3c-1.6,0-3.5-0.5-4.7-1.4c-1-0.7,0.1-2.2,1.1-1.5
			c0.8,0.6,2.3,1,3.6,1c2.1,0,3.3-1,3.3-2.5c0-1.3-1.1-1.7-2.2-2.1c-2.3-0.7-5.7-1-5.7-4.2c0-2.6,2.5-3.7,4.7-3.7
			C131.2,19.3,133.1,19.5,134,20.5z"/>
		<path fill="#0067AC" d="M123.8,32c0.2,0.5-0.1,1.3-0.9,1.3h-8c-0.5,0-0.9-0.4-0.9-0.9V20.5c0-0.5,0.4-0.9,0.9-0.9h8
			c1,0,1.2,1.2,0.6,1.7c-0.1,0.1-0.3,0.2-0.6,0.2h-7.1V25h5.1c1.2,0,1.2,1.8,0,1.8h-5.1v4.5h7.1C123.4,31.4,123.7,31.7,123.8,32z"/>
		<path fill="#0067AC" d="M111.7,20.5v11.9c0,1.2-1.9,1.2-1.9,0V20.5C109.9,19.3,111.7,19.3,111.7,20.5z"/>
		<path fill="#0067AC" d="M107.4,19.5c1.2,0,1.2,1.9,0,1.9h-3.1v10.9c0,1.2-1.9,1.2-1.9,0V21.4h-3.1c-1.2,0-1.2-1.9,0-1.9H107.4z"/>
		<path fill="#0067AC" d="M97.3,20.5v11.9c0,1.2-1.9,1.2-1.9,0V20.5C95.4,19.3,97.3,19.3,97.3,20.5z"/>
		<path fill="#0067AC" d="M92.6,20.5c0.8,0.8-0.4,2.2-1.3,1.3c0,0-0.1-0.1-0.1-0.1c-0.6-0.5-1.6-0.6-2.4-0.6c-2,0-2.9,0.8-2.9,1.8
			c0,1.1,1.2,1.5,2.2,1.9c2.4,0.7,5.7,1.1,5.7,4.5c0,3-2.6,4.3-5.2,4.3c-1.6,0-3.5-0.5-4.7-1.4c-1-0.7,0.1-2.2,1.1-1.5
			c0.8,0.6,2.3,1,3.6,1c2.1,0,3.3-1,3.3-2.5c0-1.3-1.1-1.7-2.2-2.1c-2.3-0.7-5.7-1-5.7-4.2c0-2.6,2.5-3.7,4.7-3.7
			C89.8,19.3,91.7,19.5,92.6,20.5z"/>
		<path fill="#0067AC" d="M69.7,19.5c0.6,0,0.9,0.5,0.9,0.9c0,0.5-0.3,0.9-0.9,0.9h-7.1V25h5.1c1.2,0,1.2,1.8,0,1.8h-5.1v4.5h7.1
			c0.6,0,0.9,0.5,0.9,0.9c0,0.5-0.3,0.9-0.9,0.9h-8c-0.5,0-0.9-0.4-0.9-0.9V20.5c0-0.5,0.4-0.9,0.9-0.9H69.7z"/>
		<path fill="#0067AC" d="M66.1,3.2V15c0,0.9-1.2,1.3-1.7,0.5l-6.3-9.3V15c0,1.2-1.9,1.2-1.9,0V3.2c0-0.9,1.2-1.3,1.7-0.5l6.3,9.4
			V3.2C64.2,1.9,66.1,1.9,66.1,3.2z"/>
		<path fill="#0067AC" d="M66,42.2c0.1,0.3,0,0.5-0.2,0.5c-0.2,0.1-0.4,0-0.5-0.2l-0.5-1.1H62l-0.5,1.1c-0.2,0.5-1,0.2-0.8-0.3
			l2.2-5.3c0.1-0.3,0.6-0.4,0.8,0L66,42.2z M64.4,40.5l-1-2.4l-1,2.4H64.4z"/>
		<path fill="#0067AC" d="M59.8,37v5.3c0,0.5-0.8,0.5-0.8,0V37C58.9,36.5,59.8,36.5,59.8,37z"/>
		<path fill="#0067AC" d="M57.7,20.2c0.5-1.5,2.1-0.3,1.8,0.6l-4,11.8c-0.3,0.9-1.5,0.9-1.7,0l-4-11.8c-0.4-1.2,1.4-1.8,1.8-0.6
			l3.1,9.2L57.7,20.2z"/>
		<path fill="#0067AC" d="M57.5,41.9c0.6,0,0.6,0.8,0,0.8h-2.7c-0.2,0-0.4-0.2-0.4-0.4V37c0-0.5,0.8-0.5,0.8,0v4.9H57.5z"/>
		<path fill="#0067AC" d="M53.8,2.2c0.6,0,0.9,0.5,0.9,0.9c0,0.5-0.3,0.9-0.9,0.9h-7.1v3.6h5.1c1.2,0,1.2,1.9,0,1.9h-5.1v4.5h7.1
			c0.6,0,0.9,0.5,0.9,0.9c0,0.5-0.3,0.9-0.9,0.9h-8c-0.5,0-0.9-0.4-0.9-0.9V3.2c0-0.5,0.4-0.9,0.9-0.9H53.8z"/>
		<path fill="#0067AC" d="M53.6,42.2c0.1,0.3,0,0.5-0.2,0.5c-0.2,0.1-0.4,0-0.5-0.2l-0.5-1.1h-2.7l-0.5,1.1c-0.2,0.5-1,0.2-0.8-0.3
			l2.2-5.3c0.1-0.3,0.6-0.4,0.8,0L53.6,42.2z M52,40.5l-1-2.4l-1,2.4H52z"/>
		<path fill="#0067AC" d="M47.8,20.5v11.9c0,1.2-1.9,1.2-1.9,0V20.5C45.9,19.3,47.8,19.3,47.8,20.5z"/>
		<path fill="#0067AC" d="M43.6,20.5v11.9c0,0.9-1.2,1.3-1.7,0.5l-6.3-9.3v8.8c0,1.2-1.9,1.2-1.9,0V20.5c0-0.9,1.2-1.3,1.7-0.5
			l6.3,9.3v-8.8C41.8,19.3,43.6,19.3,43.6,20.5z"/>
		<path fill="#0067AC" d="M43.4,6.3c0,2.3-1.8,4.1-4.1,4.1h-4V15c0,1.2-1.9,1.2-1.9,0V3.2c0-0.5,0.4-0.9,0.9-0.9h4.9
			C41.6,2.2,43.4,4,43.4,6.3z M41.6,6.3L41.6,6.3c-0.1-1.2-0.9-2.2-2.2-2.2h-4v4.4h4C40.6,8.5,41.5,7.5,41.6,6.3z"/>
		<path fill="#0067AC" d="M41.9,36.6c0.6,0,0.6,0.8,0,0.8h-1.4v4.9c0,0.5-0.8,0.5-0.8,0v-4.9h-1.4c-0.6,0-0.6-0.8,0-0.8H41.9z"/>
		<path fill="#0067AC" d="M36.9,37.1c0.3,0.4-0.2,1-0.6,0.6c0,0,0,0,0,0c-0.3-0.2-0.7-0.3-1.1-0.3c-0.9,0-1.3,0.4-1.3,0.8
			c0,0.5,0.5,0.7,1,0.8c1.1,0.3,2.5,0.5,2.5,2c0,1.3-1.2,1.9-2.3,1.9c-0.7,0-1.6-0.2-2.1-0.6c-0.4-0.3,0-1,0.5-0.7
			c0.4,0.3,1,0.5,1.6,0.5c0.9,0,1.5-0.5,1.5-1.1c0-0.6-0.5-0.8-1-0.9c-1-0.3-2.5-0.5-2.5-1.9c0-1.2,1.1-1.6,2.1-1.6
			C35.6,36.5,36.5,36.6,36.9,37.1z"/>
		<path fill="#0067AC" d="M32.1,37v3.7c0,1.2-1,2.2-2.3,2.2c-1.2,0-2.2-1-2.2-2.2V37c0-0.5,0.8-0.5,0.8,0v3.7c0,0.8,0.6,1.4,1.4,1.4
			c0.8,0,1.4-0.6,1.4-1.4V37C31.2,36.5,32.1,36.5,32.1,37z"/>
		<path fill="#0067AC" d="M31.8,20.5v8.2c0,2.7-2.2,4.9-4.9,4.9c-2.7,0-4.9-2.2-4.9-4.9v-8.2c0-1.2,1.8-1.2,1.8,0v8.2
			c0,1.7,1.4,3.1,3.1,3.1c1.7,0,3.1-1.4,3.1-3.1v-8.2C29.9,19.3,31.8,19.3,31.8,20.5z"/>
		<path fill="#0067AC" d="M31.8,6.6v5c0,2.7-2.2,4.5-4.9,4.5c-2.7,0-4.9-1.8-4.9-4.5v-5c0-2.5,1.8-4.5,4.9-4.5
			C29.9,2.1,31.8,4.1,31.8,6.6z M29.9,11.6c0.1-1.5,0.1-3.2,0-5c-0.1-1.7-1.4-2.6-3.1-2.6c-2,0-3,1.1-3.1,2.6c-0.1,1.5-0.1,3.2,0,5
			c0.1,1.7,1.4,2.6,3.1,2.6C28.8,14.2,29.9,13.1,29.9,11.6z"/>
		<path fill="#0067AC" d="M27,42.2c0.1,0.3,0,0.5-0.2,0.5c-0.2,0.1-0.4,0-0.5-0.2l-0.5-1.1h-2.7l-0.5,1.1c-0.2,0.5-1,0.2-0.8-0.3
			l2.2-5.3c0.1-0.3,0.6-0.4,0.8,0L27,42.2z M25.4,40.5l-1-2.4l-1,2.4H25.4z"/>
		<path fill="#0067AC" d="M15,23.2v14.4c0,4.1-3.3,7.3-7.3,7.3c-4.1,0-7.3-3.3-7.3-7.3V23.2H7v14.4c0,0.4,0.3,0.7,0.7,0.7
			c0.4,0,0.7-0.3,0.7-0.7V23.2H15z"/>
		<path fill="#B9E0F7" d="M15,7.3v14.4H8.3V7.3c0-0.4-0.3-0.7-0.7-0.7C7.3,6.7,7,7,7,7.3v14.4H0.3V7.3C0.3,3.3,3.6,0,7.7,0
			C11.8,0,15,3.3,15,7.3z"/>
	</g>
	<path fill="#0067AC" d="M82,31.8l-3-4.2c1.8-0.4,3.2-2.1,3.2-4c0-2.2-1.8-4.1-4.1-4.1h-4.9c-0.5,0-0.9,0.4-0.9,0.9v11.9
		c0,1.2,1.9,1.2,1.9,0v-4.6h2.6l3.7,5.2C81.2,33.9,82.7,32.8,82,31.8z M74.1,25.8v-4.4h4c1.3,0,2.1,1,2.2,2.2c0,0,0,0,0,0
		c-0.1,1.2-0.9,2.2-2.2,2.2H74.1z"/>
	<path fill="#0067AC" d="M47.5,42.1l-1.4-1.9c0.8-0.2,1.5-0.9,1.5-1.8c0-1-0.8-1.8-1.9-1.8h-2.2c-0.2,0-0.4,0.2-0.4,0.4v5.3
		c0,0.5,0.8,0.5,0.8,0v-2.1h1.2l1.7,2.3C47.1,43,47.8,42.5,47.5,42.1z M43.9,39.4v-2h1.8c0.6,0,1,0.5,1,1c0,0,0,0,0,0
		c0,0.5-0.4,1-1,1H43.9z"/>
</g>
</svg>
